{"title":"Eliza Graves (2014) Dual Audio WEB-DL 720p MKV x264","uid":11356943,"size":4155176565,"categoryP":"video","categoryS":"hd___movies","magnet":"?xt=urn:btih:0e042ec12721054e9c9de0d83c5fedec906d06fa&amp;dn=Eliza+Graves+%282014%29+Dual+Audio+WEB-DL+720p+MKV+x264&amp;tr=udp%3A%2F%2Ftracker.openbittorrent.com%3A80&amp;tr=udp%3A%2F%2Fopen.demonii.com%3A1337&amp;tr=udp%3A%2F%2Ftracker.coppersurfer.tk%3A6969&amp;tr=udp%3A%2F%2Fexodus.desync.com%3A6969","seeders":102,"leechers":8,"uploader":"darkj6","files":-1,"time":1414957415,"description":" ______   _______  ______    ___   _      ___  --------|\n|      | |   _   ||    _ |  |   | | |    |   ||   |----|    \n|  _    ||  |_|  ||   | ||  |   |_| |    |   ||   |___ \n| | |   ||       ||   |_||_ |      _|    |   ||    _  |\n| |_|   ||       ||    __  ||     |_  ___|   ||   | | |\n|       ||   _   ||   |  | ||    _  ||       ||   |_| |\n|______| |__| |__||___|  |_||___| |_||_______||_______|\n                                                                                      &lt;a href=&quot;\nhttps://thepiratebay.se/user/darkj6/&quot; rel=&quot;nofollow&quot; target=&quot;_NEW&quot;&gt;\nhttps://thepiratebay.se/user/darkj6/&lt;/a&gt;\n\nJoin ThePirateBay Forum:\n                                                                                                               &lt;a href=&quot;\nhttps://forum.suprbay.org/member.php?action=register&amp;referrer=908&quot; rel=&quot;nofollow&quot; target=&quot;_NEW&quot;&gt;\nhttps://forum.suprbay.org/member.php?action=register&amp;referrer=908&lt;/a&gt;\n &lt;a href=&quot;\nhttp://www.imdb.com/title/tt1772264/&quot; rel=&quot;nofollow&quot; target=&quot;_NEW&quot;&gt;\nhttp://www.imdb.com/title/tt1772264/&lt;/a&gt;\n\n\n\nFormat : MKV (x264) \n\nQuality : WEB-DL 720p \n\nVideo : 4051 kb / s, 1280x530 \n\nAudio : Russian: AC3, 384 kb / s (2 ch) \n\nEnglish: AC3, 384 kb / s (6 ch) \n\nSubtitles: English\n &lt;a href=&quot;\nhttp://you-logo.ru/show-image.php?id=92d3e33298049ec5f5cd6bcfc9e3d526&quot; rel=&quot;nofollow&quot; target=&quot;_NEW&quot;&gt;\nhttp://you-logo.ru/show-image.php?id=92d3e33298049ec5f5cd6bcfc9e3d526&lt;/a&gt;\n &lt;a href=&quot;\nhttp://you-logo.ru/show-image.php?id=6e313f333be80e34b863b72e6cfd231a&quot; rel=&quot;nofollow&quot; target=&quot;_NEW&quot;&gt;\nhttp://you-logo.ru/show-image.php?id=6e313f333be80e34b863b72e6cfd231a&lt;/a&gt;\n\n\nFormat : Matroska\nFormat version : Version 4 / Version 2\nFile size : 3.87 GiB\nDuration : 1h 52mn\nOverall bit rate : 4 917 Kbps\nEncoded date : UTC 2014-11-02 10:30:55\nWriting application : mkvmerge v6.1.0 ('Old Devil') built on Mar 4 2013 09:10:42\nWriting library : libebml v1.3.0 + libmatroska v1.4.0\n\nVideo\nID : 1\nFormat : AVC\nFormat/Info : Advanced Video Codec\nFormat profile : &lt;a class=&quot;__cf_email__&quot; href=&quot;/cdn-cgi/l/email-protection&quot; data-cfemail=&quot;9dd0fcf4f3ddd1aeb3ac&quot;&gt;[email&amp;#160;protected]&lt;/a&gt;&lt;script cf-hash='f9e31' type=&quot;text/javascript&quot;&gt;\n/* &lt;![CDATA[ */!function(){try{var t=&quot;currentScript&quot;in document?document.currentScript:function(){for(var t=document.getElementsByTagName(&quot;script&quot;),e=t.length;e--;)if(t[e].getAttribute(&quot;cf-hash&quot;))return t[e]}();if(t&amp;&amp;t.previousSibling){var e,r,n,i,c=t.previousSibling,a=c.getAttribute(&quot;data-cfemail&quot;);if(a){for(e=&quot;&quot;,r=parseInt(a.substr(0,2),16),n=2;a.length-n;n+=2)i=parseInt(a.substr(n,2),16)^r,e+=String.fromCharCode(i);e=document.createTextNode(e),c.parentNode.replaceChild(e,c)}}}catch(u){}}();/* ]]&gt; */&lt;/script&gt;\nFormat settings, CABAC : No\nFormat settings, ReFrames : 2 frames\nCodec ID : V_MPEG4/ISO/AVC\nDuration : 1h 52mn\nBit rate : 4 051 Kbps\nWidth : 1 280 pixels\nHeight : 530 pixels\nDisplay aspect ratio : 2.40:1\nFrame rate : 23.976 fps\nColor space : YUV\nChroma subsampling : 4:2:0\nBit depth : 8 bits\nScan type : Progressive\nBits/(Pixel*Frame) : 0.249\nStream size : 3.19 GiB (82%)\nLanguage : English\nDefault : Yes\nForced : No\nColor primaries : BT.709-5, BT.1361, IEC 61966-2-4, SMPTE RP177\nTransfer characteristics : BT.709-5, BT.1361\nMatrix coefficients : BT.709-5, BT.1361, IEC 61966-2-4 709, SMPTE RP177\n\nAudio #1\nID : 2\nFormat : AC-3\nFormat/Info : Audio Coding 3\nMode extension : CM (complete main)\nFormat settings, Endianness : Big\nCodec ID : A_AC3\nDuration : 1h 52mn\nBit rate mode : Constant\nBit rate : 384 Kbps\nChannel(s) : 2 channels\nChannel positions : Front: L R\nSampling rate : 48.0 KHz\nBit depth : 16 bits\nCompression mode : Lossy\nStream size : 309 MiB (8%)\nLanguage : Russian\nDefault : Yes\nForced : No\n\nAudio #2\nID : 3\nFormat : AC-3\nFormat/Info : Audio Coding 3\nMode extension : CM (complete main)\nFormat settings, Endianness : Big\nCodec ID : A_AC3\nDuration : 1h 52mn\nBit rate mode : Constant\nBit rate : 384 Kbps\nChannel(s) : 6 channels\nChannel positions : Front: L C R, Side: L R, LFE\nSampling rate : 48.0 KHz\nBit depth : 16 bits\nCompression mode : Lossy\nStream size : 309 MiB (8%)\nLanguage : English\nDefault : No\nForced : No\n\nText\nID : 4\nFormat : UTF-8\nCodec ID : S_TEXT/UTF8\nCodec ID/Info : UTF-8 Plain Text\nLanguage : English\nDefault : No\nForced : No\n\nMenu\n00:00:00.000 : en:1\n00:06:28.000 : en:2\n00:14:17.000 : en:3\n00:18:30.000 : en:4\n00:26:18.000 : en:5\n00:34:15.000 : en:6\n00:40:43.000 : en:7\n00:45:38.000 : en:8\n00:52:33.000 : en:9\n00:57:27.000 : en:10\n01:03:40.000 : en:11\n01:09:08.000 : en:12\n01:16:32.000 : en:13\n01:22:07.000 : en:14\n01:30:18.000 : en:15\n01:43:17.000 : en:16","torrent":{"xt":"urn:btih:0e042ec12721054e9c9de0d83c5fedec906d06fa","amp;dn":"Eliza+Graves+%282014%29+Dual+Audio+WEB-DL+720p+MKV+x264","amp;tr":["udp%3A%2F%2Ftracker.openbittorrent.com%3A80","udp%3A%2F%2Fopen.demonii.com%3A1337","udp%3A%2F%2Ftracker.coppersurfer.tk%3A6969","udp%3A%2F%2Fexodus.desync.com%3A6969"],"infoHash":"0e042ec12721054e9c9de0d83c5fedec906d06fa","infoHashBuffer":{"type":"Buffer","data":[14,4,46,193,39,33,5,78,156,157,224,216,60,95,237,236,144,109,6,250]},"announce":[],"urlList":[]}}